<svg width="34" height="34" viewBox="0 0 34 34" fill="none" xmlns="http://www.w3.org/2000/svg">
<path d="M5 9H9.5L9.85714 10.5238M9.85714 10.5238L12 19.6667H23L25 10.5238H9.85714Z" stroke="white"/>
<path d="M12 19.668L10 20.6838V22.2077H23.5" stroke="white"/>
<path d="M14.5 23.731C14.5 24.5844 13.821 25.2627 13 25.2627C12.179 25.2627 11.5 24.5844 11.5 23.731C11.5 22.8776 12.179 22.1992 13 22.1992C13.821 22.1992 14.5 22.8776 14.5 23.731Z" stroke="white"/>
<path d="M21.5 23.731C21.5 24.5844 20.821 25.2627 20 25.2627C19.179 25.2627 18.5 24.5844 18.5 23.731C18.5 22.8776 19.179 22.1992 20 22.1992C20.821 22.1992 21.5 22.8776 21.5 23.731Z" stroke="white"/>
</svg>
