<svg width="322" height="77" viewBox="0 0 322 77" fill="none" xmlns="http://www.w3.org/2000/svg">
<path d="M29.0268 46.8923H32.9294V49.7451H29.0268V58H26V38H34V40.8629H29.0268V46.8923Z" fill="white"/>
<path d="M46 58H42.8326L42.2861 54.3664H38.4305L37.8841 58H35L38.1978 38H42.8022L46 58ZM38.8353 51.6538H41.8611L40.3431 41.5425L38.8252 51.6538H38.8353Z" fill="white"/>
<path d="M53.7322 58C53.6908 57.8685 53.6494 57.7471 53.6081 57.6257C53.5667 57.5144 53.5357 57.3627 53.5047 57.2008C53.4736 57.0288 53.4529 56.8164 53.4426 56.5432C53.4323 56.2802 53.4219 55.9464 53.4219 55.5417V52.3955C53.4219 51.4648 53.2565 50.8073 52.9255 50.4229C52.5946 50.0384 52.0569 49.8563 51.3226 49.8563H50.2161V57.9899H47V38H51.8501C53.5253 38 54.7353 38.3844 55.4902 39.1431C56.2347 39.9019 56.6174 41.0551 56.6174 42.5928V44.1608C56.6174 46.2145 55.9142 47.5701 54.5181 48.2175C55.3351 48.5412 55.8935 49.0673 56.1934 49.8058C56.4933 50.5443 56.6484 51.4244 56.6484 52.4765V55.562C56.6484 56.0577 56.6691 56.4927 56.7104 56.8569C56.7518 57.2312 56.8449 57.6055 57 57.9899H53.7322V58ZM50.2265 40.8629V47.0035H51.4778C52.0776 47.0035 52.5533 46.8518 52.8945 46.5483C53.2358 46.2448 53.4012 45.6884 53.4012 44.8892V42.9165C53.4012 42.1983 53.2668 41.6722 53.0083 41.3485C52.7394 41.0248 52.3361 40.8629 51.7673 40.8629H50.2161H50.2265Z" fill="white"/>
<path d="M62.294 46.4269H66.8205V49.2898H62.294V55.1371H68V58H59V38H68V40.8629H62.294V46.4269Z" fill="white"/>
<path d="M79 58H75.8326L75.2861 54.3664H71.4305L70.8841 58H68L71.1978 38H75.8022L79 58ZM71.8353 51.6538H74.8611L73.3431 41.5425L71.8252 51.6538H71.8353Z" fill="white"/>
<path d="M80.0875 42.9109C80.0875 41.3267 80.4568 40.1089 81.1955 39.2673C81.9341 38.4158 83.0518 38 84.5292 38C86.0065 38 87.1242 38.4257 87.8628 39.2673C88.6015 40.1188 88.9708 41.3366 88.9708 42.9109V43.5248H86.1134V42.7129C86.1134 42.0099 85.9773 41.505 85.7149 41.2178C85.4525 40.9307 85.0832 40.7822 84.6069 40.7822C84.1307 40.7822 83.7613 40.9307 83.4989 41.2178C83.2365 41.505 83.1004 42.0099 83.1004 42.7129C83.1004 43.3861 83.2462 43.9802 83.5378 44.4851C83.8294 45 84.1987 45.4851 84.6361 45.9406C85.0734 46.396 85.5497 46.8515 86.0551 47.3069C86.5605 47.7624 87.027 48.2574 87.4644 48.802C87.9017 49.3465 88.2711 49.9604 88.5626 50.6436C88.8542 51.3366 89 52.1485 89 53.0792C89 54.6634 88.6209 55.8812 87.8628 56.7228C87.1047 57.5743 85.987 58 84.5 58C83.013 58 81.8952 57.5743 81.1371 56.7228C80.379 55.8713 80 54.6634 80 53.0792V51.8812H82.8575V53.2772C82.8575 53.9802 82.9935 54.4752 83.2851 54.7624C83.567 55.0396 83.946 55.1782 84.4222 55.1782C84.8985 55.1782 85.2775 55.0396 85.5594 54.7624C85.8413 54.4851 85.987 53.9901 85.987 53.2772C85.987 52.604 85.8413 52.0099 85.5497 51.5049C85.2581 50.9901 84.8888 50.505 84.4514 50.0495C84.014 49.5941 83.5378 49.1386 83.0324 48.6832C82.527 48.2277 82.0605 47.7327 81.6231 47.1881C81.1857 46.6436 80.8164 46.0297 80.5248 45.3465C80.2333 44.6535 80.0875 43.8416 80.0875 42.9109Z" fill="white"/>
<path d="M90 38H100V40.8629H96.6146V58H93.3854V40.8629H90V38Z" fill="white"/>
<path d="M104.305 46.4269H108.831V49.2898H104.305V55.1371H110V58H101V38H110V40.8629H104.305V46.4269Z" fill="white"/>
<path d="M118.722 58C118.68 57.8685 118.639 57.7471 118.598 57.6257C118.556 57.5144 118.525 57.3627 118.494 57.2008C118.463 57.0288 118.443 56.8164 118.432 56.5432C118.422 56.2802 118.422 55.9464 118.422 55.5417V52.3955C118.422 51.4648 118.256 50.8073 117.926 50.4229C117.595 50.0384 117.057 49.8563 116.323 49.8563H115.216V57.9899H112V38H116.85C118.525 38 119.735 38.3844 120.49 39.1431C121.235 39.9019 121.617 41.0551 121.617 42.5928V44.1608C121.617 46.2145 120.914 47.5701 119.518 48.2175C120.335 48.5412 120.893 49.0673 121.193 49.8058C121.493 50.5443 121.648 51.4244 121.648 52.4765V55.562C121.648 56.0577 121.669 56.4927 121.71 56.8569C121.752 57.2312 121.845 57.6055 122 57.9899H118.732L118.722 58ZM115.216 40.8629V47.0035H116.467C117.067 47.0035 117.543 46.8518 117.884 46.5483C118.225 46.2448 118.391 45.6884 118.391 44.8892V42.9165C118.391 42.1983 118.256 41.6722 117.998 41.3485C117.729 41.0248 117.326 40.8629 116.757 40.8629H115.206H115.216Z" fill="white"/>
<path d="M125.84 43.5134V58H123V38H126.955L130.191 49.9676V38H133V58H129.765L125.84 43.5134Z" fill="white"/>
<path d="M133 30C133 30 138.707 33.5062 140.418 37.5274C142.445 42.3014 141.901 46.8475 139.221 50.849C139.221 50.849 147.697 49.3732 150.407 50.8192C154.274 52.8794 153.305 55.7121 153.305 55.7121C153.305 55.7121 155.56 54.167 157.301 54.3551C159.882 54.6325 159.744 58 159.744 58C160.832 56.3658 161 53.3449 161 53.3449C160.693 46.2236 155.986 39.4489 149.844 35.5861C142.277 30.832 133 30 133 30Z" fill="white"/>
<path d="M146 19C146 19 153.073 23.668 154.978 29.4602C157.25 36.3367 156.218 43.1228 152.508 49.3066C152.508 49.3066 163.48 46.3351 166.853 48.2224C171.675 50.9228 170.226 55.2093 170.226 55.2093C170.226 55.2093 173.232 52.7197 175.455 52.8301C178.748 53.0008 178.332 58 178.332 58C179.84 55.4703 179.998 50.9931 179.998 50.9931C180.107 40.4625 174.83 30.8757 167.23 25.7259C157.855 19.3915 146.01 19.01 146.01 19.01" fill="#004D94"/>
<path d="M186.378 38L190.562 56.4902L194.736 38H196L191.525 58H189.526L185 38H186.378Z" fill="white"/>
<path d="M199 38H198V58H199V38Z" fill="white"/>
<path d="M204.808 48.5989L203.377 50.773V58H202V38H203.377V48.5687L210.181 38H211.611L205.649 47.3206L212 58H210.57L204.808 48.5989Z" fill="white"/>
<path d="M214 38H213V58H214V38Z" fill="white"/>
<path d="M218.209 58H217V38H218.727L224.781 54.8898V38H226V58H224.527L218.209 40.1741V58Z" fill="white"/>
<path d="M232.5 38C233.297 38 233.969 38.1286 234.535 38.376C235.101 38.6333 235.573 38.9797 235.941 39.4151C236.308 39.8605 236.58 40.385 236.748 40.9886C236.916 41.6022 237 42.2553 237 42.9678V44.4325H235.689V42.8887C235.689 42.3642 235.636 41.8793 235.521 41.424C235.416 40.9688 235.227 40.5829 234.965 40.2464C234.713 39.9099 234.378 39.6428 233.979 39.4646C233.58 39.2766 233.098 39.1776 232.521 39.1776C231.944 39.1776 231.462 39.2766 231.063 39.4646C230.664 39.6526 230.339 39.9099 230.077 40.2464C229.815 40.5829 229.636 40.9787 229.531 41.424C229.427 41.8694 229.364 42.3642 229.364 42.8887V53.1113C229.364 53.6358 229.416 54.1207 229.531 54.576C229.636 55.0213 229.825 55.4171 230.077 55.7437C230.339 56.0703 230.664 56.3276 231.063 56.5156C231.462 56.7036 231.944 56.7927 232.521 56.7927C233.098 56.7927 233.58 56.6937 233.979 56.5156C234.378 56.3276 234.703 56.0703 234.965 55.7437C235.227 55.4171 235.406 55.0312 235.521 54.576C235.626 54.1306 235.689 53.6358 235.689 53.1113V48.8659H232.92V47.6883H237V53.0322C237 53.7447 236.916 54.4077 236.748 55.0114C236.58 55.6249 236.308 56.1494 235.941 56.5849C235.573 57.0302 235.112 57.3666 234.535 57.6239C233.969 57.8812 233.287 58 232.5 58C231.713 58 231.021 57.8713 230.455 57.6239C229.888 57.3666 229.427 57.0302 229.059 56.5849C228.692 56.1494 228.42 55.6249 228.252 55.0114C228.084 54.4077 228 53.7447 228 53.0322V42.9777C228 42.2652 228.084 41.6022 228.252 40.9985C228.42 40.3949 228.692 39.8704 229.059 39.425C229.427 38.9896 229.888 38.6432 230.455 38.3859C231.021 38.1286 231.703 38.0099 232.5 38.0099" fill="white"/>
<path d="M242.552 38C243.35 38 244.021 38.1185 244.577 38.3653C245.133 38.612 245.584 38.9477 245.941 39.3919C246.297 39.8361 246.559 40.3495 246.727 40.9516C246.895 41.5538 246.979 42.2053 246.979 42.9161V43.3406H245.668V42.8371C245.668 42.3139 245.615 41.8302 245.5 41.3959C245.395 40.9615 245.217 40.5765 244.965 40.2507C244.713 39.925 244.399 39.6683 244 39.4808C243.601 39.2932 243.129 39.1945 242.573 39.1945C241.441 39.1945 240.643 39.54 240.171 40.2211C239.699 40.9023 239.469 41.771 239.469 42.8174C239.469 43.617 239.657 44.2981 240.024 44.8608C240.392 45.4235 240.853 45.927 241.42 46.3909C241.986 46.845 242.594 47.2892 243.234 47.7137C243.874 48.1283 244.483 48.5923 245.049 49.0859C245.615 49.5795 246.087 50.1421 246.455 50.7838C246.822 51.4156 247 52.1856 247 53.0839C247 53.7947 246.916 54.4462 246.748 55.0484C246.58 55.6505 246.308 56.1639 245.941 56.6081C245.573 57.0424 245.112 57.388 244.545 57.6348C243.979 57.8815 243.297 58 242.5 58C241.703 58 241.031 57.8815 240.465 57.6348C239.899 57.3978 239.427 57.0523 239.059 56.6081C238.692 56.1639 238.42 55.6505 238.252 55.0484C238.084 54.4462 238 53.7947 238 53.0839V52.077H239.311V53.1728C239.311 54.2192 239.552 55.0879 240.024 55.769C240.496 56.4501 241.315 56.7957 242.469 56.7957C243.622 56.7957 244.43 56.46 244.913 55.769C245.395 55.0879 245.626 54.229 245.626 53.1728C245.626 52.3929 245.437 51.7117 245.07 51.1589C244.703 50.5962 244.241 50.0928 243.675 49.6288C243.108 49.1747 242.5 48.7404 241.86 48.3258C241.21 47.9112 240.612 47.4669 240.045 46.9635C239.479 46.4699 239.017 45.8973 238.65 45.2557C238.283 44.614 238.105 43.8342 238.105 42.9161C238.105 41.4452 238.451 40.2606 239.164 39.382C239.867 38.5035 241 38.0592 242.542 38.0395" fill="white"/>
<path d="M258.5 38C259.297 38 259.969 38.1286 260.535 38.376C261.101 38.6333 261.573 38.9797 261.941 39.4151C262.308 39.8605 262.58 40.385 262.748 40.9886C262.916 41.6022 263 42.2553 263 42.9678V44.4325H261.689V42.8887C261.689 42.3642 261.636 41.8793 261.521 41.424C261.416 40.9688 261.227 40.5829 260.965 40.2464C260.713 39.9099 260.378 39.6428 259.979 39.4646C259.58 39.2766 259.098 39.1776 258.521 39.1776C257.944 39.1776 257.462 39.2766 257.063 39.4646C256.664 39.6526 256.339 39.9099 256.077 40.2464C255.815 40.5829 255.636 40.9787 255.531 41.424C255.427 41.8694 255.364 42.3642 255.364 42.8887V53.1113C255.364 53.6358 255.416 54.1207 255.531 54.576C255.636 55.0213 255.825 55.4171 256.077 55.7437C256.339 56.0703 256.664 56.3276 257.063 56.5156C257.462 56.7036 257.944 56.7927 258.521 56.7927C259.098 56.7927 259.58 56.6937 259.979 56.5156C260.378 56.3276 260.703 56.0703 260.965 55.7437C261.227 55.4171 261.406 55.0312 261.521 54.576C261.626 54.1306 261.689 53.6358 261.689 53.1113V48.8659H258.92V47.6883H263V53.0322C263 53.7447 262.916 54.4077 262.748 55.0114C262.58 55.6249 262.308 56.1494 261.941 56.5849C261.573 57.0302 261.112 57.3666 260.535 57.6239C259.969 57.8812 259.287 58 258.5 58C257.713 58 257.021 57.8713 256.455 57.6239C255.888 57.3666 255.427 57.0302 255.059 56.5849C254.692 56.1494 254.42 55.6249 254.252 55.0114C254.084 54.4077 254 53.7447 254 53.0322V42.9777C254 42.2652 254.084 41.6022 254.252 40.9985C254.42 40.3949 254.692 39.8704 255.059 39.425C255.427 38.9896 255.888 38.6432 256.455 38.3859C257.021 38.1286 257.703 38.0099 258.5 38.0099" fill="white"/>
<path d="M270.867 47.2602V48.458H265.337V56.8022H272V58H264V38H272V39.1978H265.337V47.2602H270.867Z" fill="white"/>
<path d="M276.247 53.5779L275.227 58H274L278.474 38H280.433L285 58H283.649L282.629 53.5779H276.247ZM276.454 52.4322H282.423L279.412 39.5075L276.454 52.4322Z" fill="white"/>
<path d="M291.201 38.0101C292.74 38.0101 293.834 38.4125 294.512 39.2072C295.18 40.002 295.514 41.1087 295.514 42.5171V44.2575C295.514 46.5815 294.552 47.9598 292.609 48.4024C293.641 48.6338 294.39 49.0966 294.836 49.8008C295.291 50.505 295.514 51.4004 295.514 52.4869V55.6056C295.514 56.0282 295.544 56.4507 295.595 56.8732C295.656 57.3058 295.787 57.6781 296 58H294.623C294.451 57.6982 294.34 57.3561 294.279 56.9839C294.218 56.6117 294.188 56.1489 294.188 55.5956V52.4567C294.188 51.7928 294.107 51.2394 293.925 50.7968C293.753 50.3642 293.499 50.0121 293.165 49.7505C292.831 49.4889 292.436 49.3078 291.971 49.2072C291.515 49.1066 290.999 49.0463 290.422 49.0463H288.326V57.9899H287V38H291.191L291.201 38.0101ZM290.452 47.8692C291.049 47.8692 291.576 47.8189 292.031 47.7284C292.487 47.6378 292.882 47.4668 293.196 47.2153C293.51 46.9638 293.753 46.6217 293.925 46.1891C294.097 45.7565 294.188 45.2032 294.188 44.5292V42.6479C294.188 41.5614 293.955 40.7163 293.499 40.1227C293.044 39.5191 292.264 39.2274 291.171 39.2274H288.326V47.8793H290.452V47.8692Z" fill="white"/>
</svg>
