<svg width="53" height="53" viewBox="0 0 53 53" fill="none" xmlns="http://www.w3.org/2000/svg">
<path d="M18.6811 12.6872L38.4408 32.4087C44.8201 38.7756 53.64 27.7987 48.9724 23.1401L28.5902 2.79726C21.8337 1.44828 17.1002 8.15708 18.6811 12.6872Z" stroke="black"/>
<path d="M18.8269 13.1978L4 27.9961L27.9106 51.8605L47.883 32.2346" stroke="black"/>
<path d="M18.8636 13.1612C19.7152 15.9696 18.3396 24.9174 8.85126 32.838" stroke="black"/>
<path d="M12.7827 36.7792C16.9417 35.02 25.8437 28.0515 25.8636 20.1651" stroke="black"/>
<path d="M13 37C17.1271 35.0077 29.6139 33.1186 39.896 38.4128" stroke="black"/>
<path d="M28.5394 35.5282C26.9936 32.9615 26.2659 27.2391 33.2419 26.0931" stroke="black"/>
<path d="M20 43.9961C22.0733 42.7902 28.0248 40.9082 34.1558 45.4089" stroke="black"/>
<path d="M47.2013 24.7615C47.7382 25.2973 47.95 26.1284 47.7775 27.1043C47.6052 28.0783 47.0531 29.1479 46.1396 30.0596C45.226 30.9714 44.1544 31.5225 43.1785 31.6943C42.2007 31.8666 41.3681 31.6551 40.8312 31.1193C40.2943 30.5834 40.0824 29.7523 40.255 28.7764C40.4272 27.8025 40.9793 26.7329 41.8928 25.8211C42.8064 24.9093 43.878 24.3583 44.8539 24.1864C45.8317 24.0142 46.6644 24.2256 47.2013 24.7615Z" stroke="black"/>
<path d="M45.6006 27.2339C46.1174 27.7497 46.1063 28.8485 45.2467 29.7064C44.3872 30.5643 43.2862 30.5754 42.7695 30.0596C42.2527 29.5439 42.2638 28.4451 43.1234 27.5872C43.9829 26.7292 45.0839 26.7182 45.6006 27.2339Z" stroke="black"/>
</svg>
