<svg width="28" height="42" viewBox="0 0 28 42" fill="none" xmlns="http://www.w3.org/2000/svg">
<path d="M7.55682 38L5 35.7959L7.61364 35L10 36.5306" stroke="#A8A8A8"/>
<path d="M12 36C11.5776 35.8125 9.12356 34.2292 7.83621 33.4375L5 33.75L5.18103 31" stroke="#A8A8A8"/>
<path d="M2.59297 29C1.78452 31.1468 1.01075 36.3979 6 38.1762C4.52172 39.1337 3.84417 39.791 3.69018 40" stroke="#A8A8A8"/>
<path d="M1 39.2995C2.322 40.3235 6.28045 42.0923 12.2181 40.0815C18.1558 38.0706 20.5467 39.3181 21 40.1932" stroke="#A8A8A8"/>
<path d="M14.3969 39C15.969 37.7623 19.09 34.835 18.998 33.027C17.1576 32.6503 9.62334 36.3094 6 38.4619" stroke="#A8A8A8"/>
<circle cx="3" cy="27" r="1.5" stroke="#A8A8A8"/>
<path d="M4 29.4118C5.77333 29.4902 9.6112 29.5059 11 28C10.664 29.2353 8.816 30.7647 5.512 31" stroke="#A8A8A8"/>
<path d="M4 29C4.93151 28.7321 7.03562 27.7571 8 26C7.82466 27.1571 6.77626 28.4821 6.30137 29" stroke="#A8A8A8"/>
<path d="M11.0139 28L7.223 25.6212C8.17073 20.9797 8.11498 15.1197 7 10.304C16.0091 6.17304 21.4019 12.8376 23 16.6862L11.0139 28Z" stroke="#A8A8A8"/>
<path d="M7.03068 10.7682C6.78084 7.98578 7.94242 1.91491 14.7568 1.10601C22.9441 0.13412 26.7495 6.08002 26.9801 9.33891C27.1418 11.6243 26.3459 14.8846 23.5783 17" stroke="#A8A8A8"/>
<path d="M12 9L15 1" stroke="#A8A8A8"/>
<path d="M17 10L20 1" stroke="#A8A8A8"/>
<path d="M21 13L24 4" stroke="#A8A8A8"/>
</svg>
