<?xml version="1.0" encoding="UTF-8"?>
<svg width="68px" height="60px" viewBox="0 0 68 60" version="1.1" xmlns="http://www.w3.org/2000/svg" xmlns:xlink="http://www.w3.org/1999/xlink">
    <title>loader</title>
    <g id="Page-1" stroke="none" stroke-width="1" fill="none" fill-rule="evenodd">
        <g id="loader" transform="translate(0.016370, 0.824370)" fill-rule="nonzero">
            <path d="M0.00562962963,17.7011111 C0.00562962963,17.7011111 8.34274074,22.7793333 10.8422222,28.5878519 C13.8120741,35.4917037 13.0072593,42.0698519 9.09659259,47.8614815 C9.09659259,47.8614815 21.4803704,45.7211852 25.4420741,47.8165185 C31.0983704,50.805037 29.6701481,54.8945926 29.6701481,54.8945926 C29.6701481,54.8945926 32.963037,52.6644444 35.5134815,52.9340741 C39.2824444,53.332963 39.0897778,58.203037 39.0897778,58.203037 C40.6766667,55.8327407 40.9317778,51.4735556 40.9317778,51.4735556 C40.484,41.1654074 33.6034815,31.3685185 24.6259259,25.7846667 C13.5682963,18.9088889 -3.55271368e-15,17.7011111 -3.55271368e-15,17.7011111" id="Path" fill="#191036"></path>
            <path d="M18.4201481,0 C18.4201481,0 28.7239259,6.66237037 31.5067407,14.9257037 C34.810963,24.7507407 33.309037,34.4297037 27.9020741,43.2491852 C27.9020741,43.2491852 43.8962222,39.0023704 48.8157037,41.7043704 C55.8379259,45.558 53.7239259,51.6698519 53.7239259,51.6698519 C53.7239259,51.6698519 58.0991852,48.1139259 61.3354815,48.2768148 C66.1302963,48.5183704 65.5354815,55.6526667 65.5354815,55.6526667 C67.734,52.0462222 67.9614074,45.6478519 67.9614074,45.6478519 C68.1199259,30.621037 60.4347407,16.9311852 49.3484444,9.58348148 C35.6894815,0.53362963 18.4201481,0 18.4201481,0 Z" id="Path" fill="#004D94"></path>
        </g>
    </g>
</svg>