<svg width="99" height="51" viewBox="0 0 99 51" fill="none" xmlns="http://www.w3.org/2000/svg">
<path d="M43.0037 18C43.0037 18 48.5032 21.3853 50.1519 25.2574C52.1109 29.8598 51.58 34.2449 49.0004 38.1058C49.0004 38.1058 57.1692 36.6791 59.7825 38.0759C63.5136 40.0681 62.5714 42.7943 62.5714 42.7943C62.5714 42.7943 64.7436 41.3076 66.4259 41.4874C68.9121 41.7533 68.785 45 68.785 45C69.8318 43.4197 70 40.5137 70 40.5137C69.7047 33.642 65.166 27.1111 59.2441 23.3888C51.9502 18.8051 43 18 43 18" fill="white"/>
<path d="M55 6C55 6 61.8632 10.4294 63.7168 15.9232C65.9177 22.4552 64.9173 28.8902 61.3158 34.7537C61.3158 34.7537 71.9692 31.9303 75.246 33.7267C79.9234 36.2887 78.5153 40.3521 78.5153 40.3521C78.5153 40.3521 81.4297 37.988 83.5853 38.0963C86.779 38.2569 86.3826 43 86.3826 43C87.8474 40.6023 87.9984 36.3484 87.9984 36.3484C88.1041 26.358 82.985 17.2565 75.6009 12.3715C66.5028 6.3548 55 6 55 6Z" fill="#014D94"/>
<path d="M12.1322 25.6645H13.5987V26.5222H12.1322V29H11V23H14V23.8537H12.1322V25.6645Z" fill="white"/>
<path d="M15.9964 29H15.131L14.9832 27.9127H13.9339L13.7861 29H13L13.8726 23H15.1274L16 29H15.9964ZM14.0421 27.0992H14.8678L14.4567 24.0675L14.0457 27.0992H14.0421Z" fill="white"/>
<path d="M19.0203 29C19.0081 28.9603 18.9959 28.9246 18.9837 28.8888C18.9715 28.8531 18.9634 28.8134 18.9553 28.7617C18.9472 28.7101 18.939 28.6466 18.939 28.5632C18.939 28.4838 18.935 28.3845 18.935 28.2654V27.3203C18.935 27.0384 18.8862 26.8438 18.7846 26.7287C18.687 26.6135 18.5244 26.5579 18.3008 26.5579H17.9675V29H17V23H18.4553C18.9593 23 19.3211 23.1152 19.5488 23.3415C19.7724 23.5718 19.8862 23.9173 19.8862 24.3779V24.8504C19.8862 25.4699 19.6748 25.8749 19.2561 26.0695C19.5 26.1688 19.6707 26.3276 19.7602 26.546C19.8496 26.7644 19.8943 27.0344 19.8943 27.3481V28.2733C19.8943 28.4242 19.8984 28.5513 19.9106 28.6625C19.9228 28.7737 19.9512 28.8888 20 29H19.0163H19.0203ZM17.9675 23.8537V25.6962H18.3455C18.5285 25.6962 18.6707 25.6486 18.7724 25.5572C18.874 25.4659 18.9268 25.2991 18.9268 25.0609V24.4692C18.9268 24.2508 18.8862 24.096 18.8089 23.9967C18.7276 23.9014 18.6057 23.8498 18.435 23.8498H17.9715L17.9675 23.8537Z" fill="white"/>
<path d="M22.1019 25.5295H23.6111V26.3832H22.1019V28.1423H24V29H21V23H24V23.8537H22.1019V25.5295Z" fill="white"/>
<path d="M27 29H26.1346L25.9868 27.9127H24.9339L24.7861 29H24L24.8726 23H26.1274L27 29ZM25.0457 27.0992H25.8714L25.4603 24.0675L25.0493 27.0992H25.0457Z" fill="white"/>
<path d="M27.0296 24.4748C27.0296 24.0013 27.1523 23.6365 27.3977 23.3803C27.6432 23.1242 28.0155 23 28.5063 23C28.9972 23 29.3695 23.1281 29.6149 23.3803C29.8604 23.6365 29.9873 23.9974 29.9873 24.4748V24.6611H29.0395V24.4166C29.0395 24.2031 28.9972 24.0556 28.9083 23.9664C28.8195 23.881 28.6968 23.8383 28.5402 23.8383C28.3836 23.8383 28.2567 23.881 28.1678 23.9664C28.079 24.0517 28.0367 24.2031 28.0367 24.4166C28.0367 24.6184 28.0832 24.793 28.1848 24.9483C28.2821 25.1035 28.4048 25.2471 28.5487 25.3829C28.6968 25.5188 28.8533 25.6585 29.0183 25.7943C29.1834 25.9301 29.3441 26.0815 29.488 26.2445C29.6319 26.4075 29.7546 26.5899 29.8519 26.7956C29.9492 27.0013 30 27.2458 30 27.5252C30 27.9987 29.8731 28.3635 29.6192 28.6197C29.3653 28.8758 28.9929 29 28.5021 29C28.0113 29 27.6347 28.8719 27.3808 28.6197C27.1269 28.3674 27 28.0026 27 27.5252V27.1643H27.952V27.5834C27.952 27.7969 27.9986 27.9444 28.0917 28.0259C28.1848 28.1113 28.3117 28.1501 28.4683 28.1501C28.6248 28.1501 28.7518 28.1074 28.8491 28.0259C28.9422 27.9405 28.9887 27.793 28.9887 27.5834C28.9887 27.3739 28.9379 27.207 28.8406 27.0517C28.7433 26.9004 28.6206 26.7529 28.4767 26.6171C28.3286 26.4812 28.1721 26.3415 28.0071 26.2057C27.842 26.0699 27.6855 25.9185 27.5374 25.7555C27.3893 25.5925 27.2708 25.4101 27.1735 25.2005C27.0762 24.9948 27.0254 24.7503 27.0254 24.4709" fill="white"/>
<path d="M31 23H34V23.8537H32.9864V29H32.0177V23.8537H31V23Z" fill="white"/>
<path d="M35.1019 25.5295H36.6111V26.3832H35.1019V28.1423H37V29H34V23H37V23.8537H35.1019V25.5295Z" fill="white"/>
<path d="M39.0203 29C39.0081 28.9603 38.9959 28.9246 38.9837 28.8888C38.9715 28.8531 38.9634 28.8134 38.9553 28.7617C38.9472 28.7101 38.939 28.6466 38.939 28.5632C38.939 28.4838 38.935 28.3845 38.935 28.2654V27.3203C38.935 27.0384 38.8862 26.8438 38.7846 26.7287C38.687 26.6135 38.5244 26.5579 38.3008 26.5579H37.9675V29H37V23H38.4553C38.9594 23 39.3211 23.1152 39.5488 23.3415C39.7724 23.5718 39.8862 23.9173 39.8862 24.3779V24.8504C39.8862 25.4699 39.6748 25.8749 39.2561 26.0695C39.5 26.1688 39.6707 26.3276 39.7602 26.546C39.8496 26.7644 39.8943 27.0344 39.8943 27.3481V28.2733C39.8943 28.4242 39.8984 28.5513 39.9106 28.6625C39.9228 28.7737 39.9512 28.8888 40 29H39.0163H39.0203ZM37.9675 23.8537V25.6962H38.3455C38.5285 25.6962 38.6707 25.6486 38.7724 25.5572C38.874 25.4659 38.9268 25.2991 38.9268 25.0609V24.4692C38.9268 24.2508 38.8862 24.096 38.8089 23.9967C38.7276 23.9014 38.6057 23.8498 38.435 23.8498H37.9715L37.9675 23.8537Z" fill="white"/>
<path d="M41.8486 24.6519V29H41V23H42.1833L43.1554 26.5897V23H44V29H43.0279L41.8486 24.6519Z" fill="white"/>
<path d="M9.62868 32L10.5331 37.2217L11.4301 32H12L10.9632 38H10.0478L9 32H9.62868Z" fill="white"/>
<path d="M14 32H13V38H14V32Z" fill="white"/>
<path d="M15.0225 35.3951L14.6724 35.9868V38H14V32H14.6724V34.8948L16.2679 32H16.9483L15.4284 34.732L17 38H16.3117L15.0225 35.3951Z" fill="white"/>
<path d="M19 32H18V38H19V32Z" fill="white"/>
<path d="M19.6353 38H19V32H19.9004L21.3731 36.3362V32H22V38H21.2637L19.6353 33.1476V38Z" fill="white"/>
<path d="M24.4956 32.0039C25.0074 32.0039 25.3912 32.14 25.6338 32.4083C25.8765 32.6766 26 33.0343 26 33.4815V33.9831H25.2941V33.4465C25.2941 33.1782 25.2324 32.9682 25.1088 32.8205C24.9853 32.6727 24.7868 32.5988 24.5132 32.5988C24.2397 32.5988 24.05 32.6727 23.9221 32.8205C23.7941 32.9682 23.7324 33.1782 23.7324 33.4465V36.5535C23.7324 36.8218 23.7941 37.0318 23.9221 37.1795C24.05 37.3273 24.2441 37.4012 24.5132 37.4012C24.7824 37.4012 24.9853 37.3273 25.1088 37.1795C25.2324 37.0318 25.2941 36.8218 25.2941 36.5535V35.3791H24.6103V34.792H26V36.5224C26 36.9695 25.8765 37.3273 25.6338 37.5956C25.3912 37.8639 25.0074 38 24.4956 38C23.9838 38 23.6088 37.8639 23.3662 37.5956C23.1235 37.3273 23 36.9695 23 36.5224V33.4815C23 33.256 23.0309 33.0538 23.0926 32.871C23.1544 32.6883 23.2471 32.5327 23.3706 32.4044C23.4941 32.2761 23.6485 32.175 23.8382 32.105C24.0235 32.035 24.2441 32 24.5 32" fill="white"/>
<path d="M27.5044 32.0039C28.0118 32.0039 28.3868 32.1362 28.6294 32.4047C28.8721 32.6693 28.9912 33.0272 28.9912 33.4747V33.6342H28.2853V33.4397C28.2853 33.1712 28.2235 32.965 28.1044 32.8171C27.9853 32.6732 27.7912 32.5992 27.5221 32.5992C27.2529 32.5992 27.0632 32.6732 26.9397 32.8171C26.8206 32.965 26.7588 33.1673 26.7588 33.4319C26.7588 33.6498 26.8162 33.8405 26.9265 34.0039C27.0368 34.1673 27.1779 34.3152 27.3412 34.4553C27.5044 34.5914 27.6853 34.7276 27.8794 34.8599C28.0735 34.9922 28.2544 35.1362 28.4176 35.2918C28.5853 35.4475 28.7221 35.6265 28.8324 35.8249C28.9426 36.0233 29 36.2607 29 36.5331C29 36.9805 28.8765 37.3385 28.6338 37.6031C28.3912 37.8677 28.0118 38 27.4956 38C26.9794 38 26.6044 37.8677 26.3618 37.6031C26.1191 37.3346 26 36.9805 26 36.5331V36.1984H26.6971V36.5681C26.6971 36.8366 26.7588 37.0428 26.8868 37.1907C27.0147 37.3385 27.2088 37.4086 27.4779 37.4086C27.7471 37.4086 27.9412 37.3346 28.0691 37.1907C28.1971 37.0467 28.2588 36.8366 28.2588 36.5681C28.2588 36.3502 28.2015 36.1595 28.0912 36C27.9809 35.8405 27.8441 35.6926 27.6765 35.5525C27.5132 35.4163 27.3324 35.2802 27.1426 35.1479C26.9529 35.0156 26.7765 34.8716 26.6088 34.716C26.4412 34.5603 26.3044 34.3813 26.1941 34.1829C26.0838 33.9844 26.0265 33.7471 26.0265 33.4708C26.0265 33.0156 26.1456 32.6576 26.3882 32.3969C26.6309 32.1323 27.0015 32 27.5044 32" fill="white"/>
<path d="M32.4956 32.0039C33.0074 32.0039 33.3912 32.14 33.6338 32.4083C33.8765 32.6766 34 33.0343 34 33.4815V33.9831H33.2941V33.4465C33.2941 33.1782 33.2324 32.9682 33.1088 32.8205C32.9853 32.6727 32.7868 32.5988 32.5132 32.5988C32.2397 32.5988 32.05 32.6727 31.9221 32.8205C31.7941 32.9682 31.7324 33.1782 31.7324 33.4465V36.5535C31.7324 36.8218 31.7941 37.0318 31.9221 37.1795C32.05 37.3273 32.2441 37.4012 32.5132 37.4012C32.7824 37.4012 32.9853 37.3273 33.1088 37.1795C33.2324 37.0318 33.2941 36.8218 33.2941 36.5535V35.3791H32.6103V34.792H34V36.5224C34 36.9695 33.8765 37.3273 33.6338 37.5956C33.3912 37.8639 33.0074 38 32.4956 38C31.9838 38 31.6088 37.8639 31.3662 37.5956C31.1235 37.3273 31 36.9695 31 36.5224V33.4815C31 33.256 31.0309 33.0538 31.0926 32.871C31.1544 32.6883 31.2471 32.5327 31.3706 32.4044C31.4941 32.2761 31.6485 32.175 31.8382 32.105C32.0235 32.035 32.2441 32 32.5 32" fill="white"/>
<path d="M36.5949 34.6565V35.2561H34.8151V37.3925H37V38H34V32H37V32.6075H34.8151V34.6565H36.5949Z" fill="white"/>
<path d="M37.7774 36.7929L37.5657 38H37L38.0547 32H38.9453L40 38H39.3869L39.1752 36.7929H37.781H37.7774ZM37.8577 36.2171H39.0876L38.4672 32.7545L37.8613 36.2171H37.8577Z" fill="white"/>
<path d="M42.43 32C42.9349 32 43.2999 32.119 43.5248 32.3532C43.7454 32.5873 43.86 32.9286 43.86 33.373V33.8611C43.86 34.1905 43.7963 34.4603 43.669 34.6667C43.5417 34.873 43.338 35.0159 43.0665 35.0952C43.3593 35.1746 43.5672 35.3214 43.6902 35.5357C43.8133 35.75 43.8727 36.0198 43.8727 36.3452V37.2778C43.8727 37.4087 43.8812 37.5357 43.8897 37.6587C43.9024 37.7817 43.9364 37.8929 44 37.996H43.2744C43.232 37.9087 43.2023 37.8175 43.181 37.7183C43.1641 37.619 43.1513 37.4683 43.1513 37.2698V36.3294C43.1513 35.9921 43.0707 35.7579 42.9095 35.631C42.7482 35.5 42.5191 35.4365 42.2178 35.4365H41.7129V38H41V32H42.43ZM42.2475 34.8294C42.5361 34.8294 42.7567 34.7738 42.9137 34.6627C43.075 34.5516 43.1513 34.3333 43.1513 34.0079V33.4325C43.1513 33.1587 43.0962 32.9524 42.9816 32.8175C42.867 32.6786 42.6761 32.6111 42.4088 32.6111H41.7129V34.8294H42.2433H42.2475Z" fill="white"/>
</svg>
