<svg width="60" height="60" viewBox="0 0 60 60" fill="none" xmlns="http://www.w3.org/2000/svg">
<path d="M6.46094 18.4375C6.46094 18.4375 12.5989 22.2643 14.4392 26.6533C16.6199 31.8638 16.0348 36.8257 13.152 41.1931C13.152 41.1931 22.2685 39.5823 25.1832 41.1606C29.3425 43.4091 28.3 46.5009 28.3 46.5009C28.3 46.5009 30.7254 44.8145 32.5976 45.0199C35.374 45.3226 35.2251 48.998 35.2251 48.998C36.3953 47.2144 36.5761 43.9172 36.5761 43.9172C36.2463 36.1447 31.1828 28.7505 24.5768 24.5345C16.439 19.3456 6.46094 18.4375 6.46094 18.4375Z" fill="white"/>
<path d="M20.0039 7C20.0039 7 27.5885 12.0268 29.631 18.2643C32.067 25.6693 30.9607 32.977 26.9822 39.6361C26.9822 39.6361 38.7474 36.4363 42.3642 38.4686C47.5341 41.3766 45.981 45.9925 45.981 45.9925C45.981 45.9925 49.2042 43.3116 51.587 43.4305C55.1187 43.6143 54.672 48.9978 54.672 48.9978C56.2889 46.2736 56.4591 41.4522 56.4591 41.4522C56.5761 30.1123 50.9169 19.7885 42.7684 14.2429C32.7159 7.4216 20.0145 7.01081 20.0145 7.01081" fill="#004D94"/>
</svg>
