<svg width="64" height="38" viewBox="0 0 64 38" fill="none" xmlns="http://www.w3.org/2000/svg">
<path d="M12.4042 12.2867C11.6283 13.8236 9.67953 15.0312 8.80211 15.4428C0.0741299 19.8341 4.50737 25.8717 3.95321 26.5578C3.39905 27.2439 0.212632 26.8322 1.18241 29.0278C2.15219 31.2234 4.50737 36.9867 5.75423 36.5751C7.00109 36.1634 7.55525 31.2234 9.63335 29.0278C11.7115 26.8322 13.3739 32.1839 14.8979 32.87C16.4218 33.5562 16.0062 31.7723 17.2531 30.1256C18.4999 28.4789 19.7468 30.1256 21.1322 30.6745C22.5176 31.2234 20.8551 32.4584 22.6561 32.87C24.4571 33.2817 24.7342 32.87 25.5655 33.9678C28.1977 38.6334 33.0466 36.5751 36.5101 34.9284C39.9736 33.2817 39.4195 34.9284 42.0517 34.9284C44.684 34.9284 45.6538 35.0656 47.4548 33.5562C49.2558 32.0467 48.286 30.5372 49.3943 28.7533C50.5027 26.9694 51.1954 30.1256 52.0266 30.9489C52.8578 31.7723 53.412 30.9489 54.6589 31.2234C55.9057 31.4978 56.0443 32.5956 55.9057 35.34C55.7672 38.0845 57.014 37.5356 57.8453 32.87C58.6765 28.2045 57.8453 25.0483 57.014 24.6367C56.1828 24.225 54.9359 25.46 53.8276 23.2644C52.7193 21.0689 54.7974 18.8733 54.9359 15.7172C55.0745 12.561 55.7672 13.11 57.014 15.7172C58.2609 18.3243 61.4473 20.7944 62.5556 21.3433C63.664 21.8922 62.4171 19.1478 61.8629 17.7756C61.3088 16.4034 57.1526 14.2078 57.8453 10.7771C58.538 7.34649 56.3213 8.03275 55.7672 4.46496C55.213 0.89716 53.412 0.485491 51.8881 1.44605C50.3641 2.40661 52.5808 4.32773 51.611 7.07219C50.6412 9.81665 48.7016 9.40498 47.1777 10.3655C45.6538 11.3261 47.0392 14.2078 44.8225 15.9917C42.6059 17.7756 43.16 14.7567 41.2205 14.2078C39.2809 13.6589 38.0341 15.0311 36.0945 15.4428C34.1549 15.8545 35.4018 15.0311 36.9257 13.7961C38.4497 12.5611 36.6487 12.2867 33.3237 13.11C29.9987 13.9333 31.5227 15.4428 30.9685 17.0895C30.4144 18.7361 29.5831 19.1478 29.306 19.9712C29.029 20.7945 27.505 20.3828 27.0894 19.1478C26.6738 17.9128 28.8904 16.2661 29.029 14.7567C29.1675 13.2472 28.0592 13.2472 27.7821 14.2078C27.505 15.1683 26.5352 16.9522 23.903 17.7756C21.2707 18.5989 20.1624 15.4428 17.2531 16.5406C14.3437 17.6383 12.8198 17.3639 12.4042 16.2661L12.3958 16.2442C11.985 15.1592 11.73 14.4859 14.4823 15.0311C17.2531 15.58 16.4218 13.6589 15.7291 12.6984C15.0364 11.7378 13.3739 10.3656 12.4042 12.2867Z" stroke="black"/>
</svg>
