<svg viewBox="0 0 116 60" fill="none" xmlns="http://www.w3.org/2000/svg">
<path d="M47.0048 20C47.0048 20 54.1338 24.3884 56.271 29.4078C58.8104 35.3738 58.1223 41.0583 54.7783 46.0631C54.7783 46.0631 65.3675 44.2136 68.7551 46.0243C73.5917 48.6068 72.3704 52.1408 72.3704 52.1408C72.3704 52.1408 75.1861 50.2136 77.3669 50.4466C80.5897 50.7913 80.4249 55 80.4249 55C81.7819 52.9515 82 49.1845 82 49.1845C81.6171 40.2767 75.7337 31.8107 68.0572 26.9854C58.602 21.0437 47 20 47 20" fill="#191036"/>
<path d="M63 5C63 5 71.735 10.7462 74.0941 17.8733C76.8952 26.3473 75.622 34.6954 71.0383 42.3021C71.0383 42.3021 84.5972 38.6392 88.7677 40.9697C94.7207 44.2934 92.9285 49.5648 92.9285 49.5648C92.9285 49.5648 96.6378 46.4979 99.3812 46.6384C103.446 46.8468 102.942 53 102.942 53C104.806 49.8895 104.998 44.3709 104.998 44.3709C105.132 31.4104 98.6173 19.603 89.2193 13.2657C77.6399 5.46028 63 5 63 5Z" fill="#004D94"/>
<path d="M14.1322 30.1085H15.5987V31.1092H14.1322V34H13V27H16V27.996H14.1322V30.1085Z" fill="#191036"/>
<path d="M19.9952 34H18.8413L18.6442 32.7315H17.2452L17.0481 34H16L17.1635 27H18.8365L20 34H19.9952ZM17.3894 31.7824H18.4904L17.9423 28.2454L17.3942 31.7824H17.3894Z" fill="#191036"/>
<path d="M23.6938 34C23.6775 33.9537 23.6612 33.912 23.645 33.8703C23.6287 33.8286 23.6179 33.7823 23.607 33.722C23.5962 33.6618 23.5854 33.5877 23.5854 33.4904C23.5854 33.3978 23.5799 33.2819 23.5799 33.143V32.0404C23.5799 31.7115 23.5149 31.4844 23.3794 31.3501C23.2493 31.2157 23.0325 31.1509 22.7344 31.1509H22.29V34H21V27H22.9404C23.6125 27 24.0949 27.1343 24.3984 27.3984C24.6965 27.6671 24.8482 28.0702 24.8482 28.6075V29.1588C24.8482 29.8815 24.5664 30.3541 24.0081 30.5811C24.3333 30.6969 24.561 30.8822 24.6802 31.137C24.7995 31.3918 24.8591 31.7068 24.8591 32.0728V33.1522C24.8591 33.3283 24.8645 33.4765 24.8808 33.6062C24.897 33.7359 24.935 33.8703 25 34H23.6883H23.6938ZM22.29 27.996V30.1456H22.794C23.0379 30.1456 23.2276 30.09 23.3631 29.9835C23.4986 29.8769 23.5691 29.6823 23.5691 29.4044V28.7141C23.5691 28.4593 23.5149 28.2786 23.4119 28.1628C23.3035 28.0516 23.1409 27.9914 22.9133 27.9914H22.2954L22.29 27.996Z" fill="#191036"/>
<path d="M26.1019 29.951H27.6111V30.9471H26.1019V32.9993H28V34H25V27H28V27.996H26.1019V29.951Z" fill="#191036"/>
<path d="M33 34H31.8462L31.649 32.7315H30.2452L30.0481 34H29L30.1635 27H31.8365L33 34ZM30.3942 31.7824H31.4952L30.9471 28.2454L30.399 31.7824H30.3942Z" fill="#191036"/>
<path d="M33.0296 28.7206C33.0296 28.1682 33.1523 27.7426 33.3977 27.4437C33.6432 27.1449 34.0155 27 34.5063 27C34.9972 27 35.3695 27.1494 35.6149 27.4437C35.8604 27.7426 35.9873 28.1636 35.9873 28.7206V28.9379H35.0395V28.6527C35.0395 28.4036 34.9972 28.2316 34.9083 28.1274C34.8195 28.0278 34.6968 27.978 34.5402 27.978C34.3836 27.978 34.2567 28.0278 34.1678 28.1274C34.079 28.227 34.0367 28.4036 34.0367 28.6527C34.0367 28.8881 34.0832 29.0919 34.1848 29.273C34.2821 29.4541 34.4048 29.6216 34.5487 29.7801C34.6968 29.9386 34.8533 30.1016 35.0183 30.26C35.1834 30.4185 35.3441 30.5951 35.488 30.7853C35.6319 30.9754 35.7546 31.1882 35.8519 31.4282C35.9492 31.6682 36 31.9534 36 32.2794C36 32.8318 35.8731 33.2574 35.6192 33.5563C35.3653 33.8551 34.9929 34 34.5021 34C34.0113 34 33.6347 33.8506 33.3808 33.5563C33.1269 33.262 33 32.8364 33 32.2794V31.8583H33.952V32.3474C33.952 32.5964 33.9986 32.7684 34.0917 32.8635C34.1848 32.9631 34.3117 33.0084 34.4683 33.0084C34.6248 33.0084 34.7518 32.9586 34.8491 32.8635C34.9422 32.7639 34.9887 32.5919 34.9887 32.3474C34.9887 32.1028 34.9379 31.9082 34.8406 31.727C34.7433 31.5505 34.6206 31.3784 34.4767 31.2199C34.3286 31.0614 34.1721 30.8984 34.0071 30.74C33.842 30.5815 33.6855 30.4049 33.5374 30.2147C33.3893 30.0246 33.2708 29.8118 33.1735 29.5673C33.0762 29.3273 33.0254 29.042 33.0254 28.716" fill="#191036"/>
<path d="M37 27H41V27.996H39.6485V34H38.3569V27.996H37V27Z" fill="#191036"/>
<path d="M42.1019 29.951H43.6111V30.9471H42.1019V32.9993H44V34H41V27H44V27.996H42.1019V29.951Z" fill="#191036"/>
<path d="M47.6938 34C47.6775 33.9537 47.6612 33.912 47.645 33.8703C47.6287 33.8286 47.6179 33.7823 47.607 33.722C47.5962 33.6618 47.5854 33.5877 47.5854 33.4904C47.5854 33.3978 47.5799 33.2819 47.5799 33.143V32.0404C47.5799 31.7115 47.5149 31.4844 47.3794 31.3501C47.2493 31.2157 47.0325 31.1509 46.7344 31.1509H46.29V34H45V27H46.9404C47.6125 27 48.0949 27.1343 48.3984 27.3984C48.6965 27.6671 48.8482 28.0702 48.8482 28.6075V29.1588C48.8482 29.8815 48.5664 30.3541 48.0081 30.5811C48.3333 30.6969 48.561 30.8822 48.6802 31.137C48.7995 31.3918 48.8591 31.7068 48.8591 32.0728V33.1522C48.8591 33.3283 48.8645 33.4765 48.8808 33.6062C48.897 33.7359 48.935 33.8703 49 34H47.6883H47.6938ZM46.29 27.996V30.1456H46.794C47.0379 30.1456 47.2276 30.09 47.3631 29.9835C47.4986 29.8769 47.5691 29.6823 47.5691 29.4044V28.7141C47.5691 28.4593 47.5149 28.2786 47.4119 28.1628C47.3035 28.0516 47.1409 27.9914 46.9133 27.9914H46.2954L46.29 27.996Z" fill="#191036"/>
<path d="M50.1315 28.9272V34H49V27H50.5777L51.8738 31.188V27H53V34H51.7039L50.1315 28.9272Z" fill="#191036"/>
<path d="M11.8382 37L13.0441 43.092L14.2402 37H15L13.6176 44H12.3971L11 37H11.8382Z" fill="#191036"/>
<path d="M17 37H16V44H17V37Z" fill="#191036"/>
<path d="M18.3634 40.961L17.8966 41.6512V44H17V37H17.8966V40.3772L20.0239 37H20.931L18.9045 40.1873L21 44H20.0822L18.3634 40.961Z" fill="#191036"/>
<path d="M23 37H22V44H23V37Z" fill="#191036"/>
<path d="M23.6353 44H23V37H23.9004L25.3731 42.0589V37H26V44H25.2637L23.6353 38.3388V44Z" fill="#191036"/>
<path d="M28.4956 37.0045C29.0074 37.0045 29.3912 37.1633 29.6338 37.4763C29.8765 37.7894 30 38.2067 30 38.7284V39.3137H29.2941V38.6876C29.2941 38.3746 29.2324 38.1296 29.1088 37.9572C28.9853 37.7848 28.7868 37.6986 28.5132 37.6986C28.2397 37.6986 28.05 37.7848 27.9221 37.9572C27.7941 38.1296 27.7324 38.3746 27.7324 38.6876V42.3124C27.7324 42.6254 27.7941 42.8704 27.9221 43.0428C28.05 43.2152 28.2441 43.3014 28.5132 43.3014C28.7824 43.3014 28.9853 43.2152 29.1088 43.0428C29.2324 42.8704 29.2941 42.6254 29.2941 42.3124V40.9423H28.6103V40.2573H30V42.2761C30 42.7978 29.8765 43.2152 29.6338 43.5282C29.3912 43.8412 29.0074 44 28.4956 44C27.9838 44 27.6088 43.8412 27.3662 43.5282C27.1235 43.2152 27 42.7978 27 42.2761V38.7284C27 38.4653 27.0309 38.2294 27.0926 38.0162C27.1544 37.803 27.2471 37.6215 27.3706 37.4718C27.4941 37.3221 27.6485 37.2041 27.8382 37.1225C28.0235 37.0408 28.2441 37 28.5 37" fill="#191036"/>
<path d="M32.5044 37.0045C33.0118 37.0045 33.3868 37.1589 33.6294 37.4721C33.8721 37.7808 33.9912 38.1984 33.9912 38.7205V38.9066H33.2853V38.6796C33.2853 38.3664 33.2235 38.1258 33.1044 37.9533C32.9853 37.7853 32.7912 37.6991 32.5221 37.6991C32.2529 37.6991 32.0632 37.7853 31.9397 37.9533C31.8206 38.1258 31.7588 38.3619 31.7588 38.6706C31.7588 38.9248 31.8162 39.1472 31.9265 39.3379C32.0368 39.5285 32.1779 39.701 32.3412 39.8645C32.5044 40.0233 32.6853 40.1822 32.8794 40.3366C33.0735 40.4909 33.2544 40.6589 33.4176 40.8405C33.5853 41.022 33.7221 41.2309 33.8324 41.4624C33.9426 41.6939 34 41.9708 34 42.2886C34 42.8106 33.8765 43.2283 33.6338 43.537C33.3912 43.8457 33.0118 44 32.4956 44C31.9794 44 31.6044 43.8457 31.3618 43.537C31.1191 43.2237 31 42.8106 31 42.2886V41.8982H31.6971V42.3294C31.6971 42.6427 31.7588 42.8833 31.8868 43.0558C32.0147 43.2283 32.2088 43.31 32.4779 43.31C32.7471 43.31 32.9412 43.2237 33.0691 43.0558C33.1971 42.8878 33.2588 42.6427 33.2588 42.3294C33.2588 42.0752 33.2015 41.8528 33.0912 41.6667C32.9809 41.4805 32.8441 41.308 32.6765 41.1446C32.5132 40.9857 32.3324 40.8268 32.1426 40.6725C31.9529 40.5182 31.7765 40.3502 31.6088 40.1686C31.4412 39.987 31.3044 39.7782 31.1941 39.5467C31.0838 39.3152 31.0265 39.0383 31.0265 38.716C31.0265 38.1848 31.1456 37.7672 31.3882 37.463C31.6309 37.1543 32.0015 37 32.5044 37" fill="#191036"/>
<path d="M38.4956 37.0045C39.0074 37.0045 39.3912 37.1633 39.6338 37.4763C39.8765 37.7894 40 38.2067 40 38.7284V39.3137H39.2941V38.6876C39.2941 38.3746 39.2324 38.1296 39.1088 37.9572C38.9853 37.7848 38.7868 37.6986 38.5132 37.6986C38.2397 37.6986 38.05 37.7848 37.9221 37.9572C37.7941 38.1296 37.7324 38.3746 37.7324 38.6876V42.3124C37.7324 42.6254 37.7941 42.8704 37.9221 43.0428C38.05 43.2152 38.2441 43.3014 38.5132 43.3014C38.7824 43.3014 38.9853 43.2152 39.1088 43.0428C39.2324 42.8704 39.2941 42.6254 39.2941 42.3124V40.9423H38.6103V40.2573H40V42.2761C40 42.7978 39.8765 43.2152 39.6338 43.5282C39.3912 43.8412 39.0074 44 38.4956 44C37.9838 44 37.6088 43.8412 37.3662 43.5282C37.1235 43.2152 37 42.7978 37 42.2761V38.7284C37 38.4653 37.0309 38.2294 37.0926 38.0162C37.1544 37.803 37.2471 37.6215 37.3706 37.4718C37.4941 37.3221 37.6485 37.2041 37.8382 37.1225C38.0235 37.0408 38.2441 37 38.5 37" fill="#191036"/>
<path d="M43.5949 40.0993V40.7988H41.8151V43.2912H44V44H41V37H44V37.7088H41.8151V40.0993H43.5949Z" fill="#191036"/>
<path d="M45.0365 42.5917L44.7543 44H44L45.4063 37H46.5937L48 44H47.1825L46.9002 42.5917H45.0414H45.0365ZM45.1436 41.9199H46.7835L45.9562 37.8802L45.1484 41.9199H45.1436Z" fill="#191036"/>
<path d="M50.43 37C50.9349 37 51.2999 37.1389 51.5248 37.412C51.7454 37.6852 51.86 38.0833 51.86 38.6019V39.1713C51.86 39.5556 51.7963 39.8704 51.669 40.1111C51.5417 40.3519 51.338 40.5185 51.0665 40.6111C51.3593 40.7037 51.5672 40.875 51.6902 41.125C51.8133 41.375 51.8727 41.6898 51.8727 42.0694V43.1574C51.8727 43.3102 51.8812 43.4583 51.8897 43.6019C51.9024 43.7454 51.9364 43.875 52 43.9954H51.2744C51.232 43.8935 51.2023 43.787 51.181 43.6713C51.1641 43.5556 51.1513 43.3796 51.1513 43.1481V42.0509C51.1513 41.6574 51.0707 41.3843 50.9095 41.2361C50.7482 41.0833 50.5191 41.0093 50.2178 41.0093H49.7129V44H49V37H50.43ZM50.2475 40.3009C50.5361 40.3009 50.7567 40.2361 50.9137 40.1065C51.075 39.9769 51.1513 39.7222 51.1513 39.3426V38.6713C51.1513 38.3519 51.0962 38.1111 50.9816 37.9537C50.867 37.7917 50.6761 37.713 50.4088 37.713H49.7129V40.3009H50.2433H50.2475Z" fill="#191036"/>
</svg>
