<svg width="24" height="24" viewBox="0 0 24 24" fill="none" xmlns="http://www.w3.org/2000/svg">
<path d="M5.13876 19.768L6.6219 7.76796C6.68383 7.26692 7.1095 6.89062 7.61435 6.89062H16.6803C17.1936 6.89062 17.6236 7.27929 17.6752 7.79001L18.8887 19.79C18.9483 20.3791 18.4858 20.8906 17.8938 20.8906H6.1312C5.53026 20.8906 5.06504 20.3644 5.13876 19.768Z"
      stroke="currentColor"/>
<path d="M5.77734 17H15.8885" stroke="black"/>
<path d="M18.9997 18.5547H7.33301" stroke="black"/>
<path d="M9.66699 8.44444V5.72222C9.66699 4.21878 10.8858 3 12.3892 3V3C13.8927 3 15.1114 4.21878 15.1114 5.72222V8.44444" stroke="currentColor"/>
<circle cx="8.88911" cy="9.22309" r="0.5" stroke="black" stroke-width="0.555556"/>
<circle cx="14.3334" cy="9.22309" r="0.5" stroke="black" stroke-width="0.555556"/>
</svg>
