<svg width="30" height="30" viewBox="0 0 30 30" fill="none" xmlns="http://www.w3.org/2000/svg">
<path d="M5.34912 18.8689C5.13912 18.9477 5 19.1485 5 19.3727C5 20.8412 5.5835 22.2501 6.62175 23.2884C7.71775 24.3844 9.204 25 10.7534 25C11.788 25 12.804 24.7254 13.6974 24.204C18.0475 21.6666 21.6667 18.0474 24.204 13.6975C24.7253 12.8037 25 11.7877 25 10.7535C25 9.20365 24.3844 7.7174 23.2884 6.62181C22.2498 5.58312 20.8413 5 19.3729 5C19.1486 5 18.9478 5.13914 18.8691 5.34915L17.2826 9.57972C17.1105 10.0387 17.2226 10.556 17.5693 10.9026L18.2752 11.6084C18.6966 12.0297 18.7648 12.6922 18.4134 13.1734C16.9481 15.1804 15.1805 16.948 13.1736 18.4134C12.6924 18.7647 12.03 18.6965 11.6086 18.2752L10.9025 17.569C10.5559 17.2224 10.0386 17.1104 9.57962 17.2825L5.34912 18.8689Z" stroke="white"/>
</svg>
