<svg width="56" height="50" viewBox="0 0 56 50" fill="none" xmlns="http://www.w3.org/2000/svg">
<path d="M33.8923 38.0034C26.4483 34.3089 11.7812 23.5078 12.6648 9.85945C25.6508 9.3291 38.2858 31.7985 38.8672 37.4127C37.3315 38.7746 36.6131 39.4117 36.4458 39.56" stroke="#A8A8A8"/>
<path d="M16.6645 24.7475L18.9929 21.346" stroke="#A8A8A8"/>
<path d="M26.6572 17.0935L23.0002 19" stroke="#A8A8A8"/>
<path d="M17.9966 20.3749L21.8035 16.9989L15.1382 17.1585L14.3108 12.951L18.285 14.3679L17.3145 20.9799" stroke="#A8A8A8"/>
<path d="M19.6621 27.7447L21.7705 24.5433L32.1737 35.8019L31.489 37.31" stroke="#A8A8A8"/>
<path d="M28.7425 20.1895L25.4249 21.6234L34.8215 33.0514L36.8622 32.8659" stroke="#A8A8A8"/>
<path d="M23.8666 41.9944L21.6312 42.2284L20.6716 44.2586L24.3987 46.1989L25.5511 44.1603L23.8666 41.9944ZM23.8666 41.9944L34.5116 17.9155L32.8485 14.9173L35.5976 5.52596L42.7371 8.87231L37.7419 17.0433L35.4556 17.8509" stroke="#A8A8A8"/>
</svg>
