<svg width="34" height="35" viewBox="0 0 34 35" fill="none" xmlns="http://www.w3.org/2000/svg">
<path d="M11.1213 7.65404C8.908 7.42697 3.78515 8.37826 1 14C4.08663 3.27998 13.9208 -4.53595 30 5.96895" stroke="#A8A8A8"/>
<path d="M19 3C22.1548 3.57644 28.7714 6.38346 30 13" stroke="#A8A8A8"/>
<path d="M30.811 10C33.6051 13.303 35.9548 21.9271 23 30" stroke="#A8A8A8"/>
<path d="M30 28C28.9971 29.6552 25.1929 33.1724 18 34" stroke="#A8A8A8"/>
<path d="M11.3679 22.158C8.82071 23.9427 3.18784 28.7114 1.03367 33.5087C0.597017 34.5081 4.41776 34.1869 11.8773 30.6175C19.3368 27.0481 24.2492 21.3728 24.7951 20.0164C25.3409 18.66 25.3409 15.2691 17.5902 18.0889" stroke="#A8A8A8"/>
<path d="M11.614 10L8 14.7405L8.31579 20L9.54386 15.2249L12 12.3183" stroke="#A8A8A8"/>
<path d="M10.5085 14.8638V17.0048C10.8838 18.1297 11.6416 20.4159 11.6707 20.561C11.6998 20.7062 10.569 23.6455 10 25.097L11.9249 28V25.097L15.23 19.2184L13.8499 16.4605L15.8838 19.2184L14.5763 23.2463L17.0097 25.097L16.4286 22.5568L18.2082 18.2386L15.23 13.4486L17.2276 10.2916C18.4262 9.84402 21.6586 9.1739 25 10.0738C23.2203 8.58603 21.1864 7.93285 18.2082 8.00543" stroke="#A8A8A8"/>
<circle cx="13.5" cy="7.5" r="2" stroke="#A8A8A8"/>
</svg>
