<svg width="30" height="30" viewBox="0 0 30 30" fill="none" xmlns="http://www.w3.org/2000/svg">
<path d="M10 17L7.18581 15.8743C6.36664 15.5467 6.34227 14.396 7.14683 14.0339L23.2504 6.78731C23.9878 6.45548 24.7937 7.0906 24.6434 7.88512L21.8162 22.8288C21.6744 23.5783 20.7794 23.8995 20.1934 23.4112L16.4278 20.2732C15.9461 19.8717 15.2154 20.0062 14.8904 20.5425C14.0848 21.8717 12.6877 24 12 24M10 17C10 17 11 24 12 24M10 17C10 17 20.5 10 19.5 11.5C18.6195 12.8207 14.2503 17.2425 13.2186 18.2806C13.0752 18.4248 12.9805 18.6072 12.9441 18.8073L12 24" stroke="white"/>
</svg>
