<svg width="18" height="22" viewBox="0 0 18 22" fill="none" xmlns="http://www.w3.org/2000/svg">
<path d="M3.15385 7.66667L4.1565 20.0805C4.19845 20.5999 4.63219 21 5.15326 21H7.46154M15 7.66667L13.9973 20.0805C13.9554 20.5999 13.5217 21 13.0006 21H10.6923M15 7.66667H16.1538C16.7061 7.66667 17.1538 7.21895 17.1538 6.66667V4.77778C17.1538 4.22549 16.7061 3.77778 16.1538 3.77778H11.7692M15 7.66667H11.3846M6.38462 3.77778H2C1.44772 3.77778 1 4.22549 1 4.77778V6.66667C1 7.21895 1.44772 7.66667 2 7.66667H6.76923M6.38462 3.77778V2C6.38462 1.44772 6.83233 1 7.38462 1H10.7692C11.3215 1 11.7692 1.44772 11.7692 2V3.77778M6.38462 3.77778H11.7692M6.76923 7.66667L7.46154 21M6.76923 7.66667H11.3846M7.46154 21H10.6923M11.3846 7.66667L10.6923 21" stroke="#191036"/>
</svg>
