<svg width="30" height="30" viewBox="0 0 30 30" fill="none" xmlns="http://www.w3.org/2000/svg">
<path d="M15.06 16.9878C17.2559 16.9555 19.0098 15.1491 18.9775 12.9531C18.9452 10.7573 17.1389 9.00329 14.9429 9.0356C12.747 9.06791 10.993 10.8743 11.0253 13.0702C11.0577 15.2661 12.864 17.0201 15.06 16.9878Z" stroke="white" stroke-linecap="round" stroke-linejoin="round"/>
<path d="M9.20264 23.0908C9.57294 20.2582 11.9747 18.0517 14.9154 18.0085C17.915 17.9643 20.4204 20.1864 20.8001 23.0908" stroke="white" stroke-linecap="round" stroke-linejoin="round"/>
<path d="M15.1471 24.9989C20.6694 24.9177 25.0801 20.3751 24.9989 14.8529C24.9176 9.33063 20.3751 4.91985 14.8528 5.0011C9.33062 5.08236 4.91985 9.6249 5.0011 15.1472C5.08235 20.6694 9.62488 25.0801 15.1471 24.9989Z" stroke="white" stroke-linecap="round" stroke-linejoin="round"/>
</svg>
