<svg width="30" height="30" viewBox="0 0 30 30" fill="none" xmlns="http://www.w3.org/2000/svg">
<path d="M22.7455 16.6014C22.3413 16.0764 22.457 15.8428 22.7455 15.3736C22.7506 15.3682 26.0873 10.6261 26.431 9.01786L26.4331 9.01678C26.6039 8.43071 26.4331 8 25.6071 8H22.8736C22.1778 8 21.857 8.36964 21.6851 8.78321C21.6851 8.78321 20.2933 12.2096 18.3245 14.4307C17.6891 15.0725 17.3953 15.2782 17.0484 15.2782C16.8776 15.2782 16.6119 15.0725 16.6119 14.4864V9.01678C16.6119 8.31393 16.4171 8 15.8411 8H11.543C11.1066 8 10.8472 8.32786 10.8472 8.63321C10.8472 9.29964 11.8316 9.45286 11.9337 11.3279V15.3961C11.9337 16.2875 11.7764 16.4514 11.4274 16.4514C10.4982 16.4514 8.24291 13.0111 6.90641 9.07357C6.63662 8.30964 6.37306 8.00107 5.672 8.00107H2.93753C2.1573 8.00107 2 8.37071 2 8.78428C2 9.51499 2.9292 13.1482 6.32097 17.9482C8.58147 21.2246 11.7649 23 14.6608 23C16.4016 23 16.6141 22.6057 16.6141 21.9274C16.6141 18.7968 16.4567 18.5011 17.3286 18.5011C17.7328 18.5011 18.4287 18.7068 20.0537 20.2872C21.9111 22.1611 22.2164 23 23.2559 23H25.9894C26.7685 23 27.1634 22.6057 26.9363 21.8278C26.4165 20.1918 22.9039 16.8264 22.7455 16.6014Z" stroke="white"/>
</svg>
