<svg width="32" height="22" viewBox="0 0 32 22" fill="none" xmlns="http://www.w3.org/2000/svg">
<path d="M18 16.5637C19.525 15.4183 22.4419 13.6573 23.9059 14.0582C25.7359 14.5593 25.4864 16.7785 21.4936 19.1409C20.8947 19.5418 20.3846 19.8568 20.1627 20" stroke="#A8A8A8"/>
<path d="M16 18C15.9375 18 15.3125 19.0909 15 20" stroke="#A8A8A8"/>
<path d="M3 21C4.3526 19.2973 8.29075 16.573 13.2225 19.2973C19.3873 22.7027 23.9133 19.2973 30 18" stroke="#A8A8A8"/>
<path d="M8.22378 6L15.2194 6.23784L8.8321 7.90272L9.5925 11.7082L13.5466 11.946C13.5466 11.946 19.0975 17.7335 17.8048 18.8434C16.5121 19.9533 12.7862 14.8001 12.7862 14.8001C12.7862 14.8001 9.89666 16.2271 7.91962 14.9587C5.94259 13.6902 5.56239 8.61624 5.56239 8.61624L1 14.9587L3.73743 8.14056L5.18219 6.3964" stroke="#A8A8A8"/>
<path d="M14 5C14.9333 5.5914 16.24 7.41935 14 10C16.88 8.64516 18.56 7.76882 19.04 7.5H32" stroke="#A8A8A8"/>
<path d="M14 5L19 7" stroke="#A8A8A8"/>
<circle cx="7" cy="3" r="2.5" stroke="#A8A8A8"/>
</svg>
