<svg width="30" height="30" viewBox="0 0 30 30" fill="none" xmlns="http://www.w3.org/2000/svg">
<path d="M20.782 17.0429L17.5818 15.4428C17.5188 15.4114 17.4487 15.3972 17.3784 15.4016C17.3082 15.406 17.2404 15.4288 17.1818 15.4678L15.5176 16.5779C14.6029 16.1392 13.8652 15.4015 13.4265 14.4867L14.5366 12.8226C14.5756 12.764 14.5984 12.6962 14.6028 12.6259C14.6072 12.5557 14.593 12.4855 14.5616 12.4226L12.9615 9.22232C12.9283 9.15552 12.8771 9.09933 12.8136 9.0601C12.7502 9.02086 12.677 9.00015 12.6024 9.0003C11.6476 9.0003 10.7318 9.37961 10.0567 10.0548C9.38147 10.73 9.00216 11.6457 9.00216 12.6006C9.00454 14.8278 9.89037 16.9632 11.4653 18.5381C13.0402 20.113 15.1755 20.9988 17.4028 21.0012C18.3576 21.0012 19.2734 20.6219 19.9486 19.9467C20.6237 19.2715 21.0031 18.3558 21.0031 17.4009C21.0031 17.3266 20.9825 17.2537 20.9434 17.1905C20.9044 17.1273 20.8485 17.0762 20.782 17.0429ZM17.4028 20.2011C15.3876 20.199 13.4556 19.3976 12.0307 17.9726C10.6058 16.5477 9.80434 14.6157 9.80222 12.6006C9.8021 11.8997 10.0648 11.2243 10.5384 10.7077C11.0121 10.1911 11.6622 9.87093 12.3604 9.81036L13.7405 12.5716L12.6404 14.2257C12.6038 14.2803 12.5811 14.343 12.5745 14.4084C12.5679 14.4739 12.5775 14.5399 12.6024 14.6007C13.1339 15.8643 14.1391 16.8694 15.4026 17.4009C15.4635 17.4262 15.5297 17.4361 15.5953 17.4296C15.6609 17.4232 15.7239 17.4006 15.7787 17.3639L17.4328 16.2638L20.194 17.6439C20.1332 18.3422 19.8127 18.9922 19.296 19.4656C18.7792 19.9391 18.1036 20.2015 17.4028 20.2011ZM15.0026 5C13.2616 4.99968 11.5506 5.45388 10.0389 6.31769C8.5273 7.1815 7.26735 8.42497 6.38373 9.92512C5.50011 11.4253 5.02343 13.1301 5.00084 14.871C4.97826 16.6119 5.41055 18.3285 6.25495 19.8511L5.06486 23.4204C4.99435 23.6318 4.98411 23.8587 5.03531 24.0757C5.08651 24.2926 5.19711 24.491 5.35472 24.6486C5.51234 24.8062 5.71073 24.9168 5.92767 24.968C6.14461 25.0192 6.37153 25.009 6.58298 24.9385L10.1522 23.7484C11.4874 24.4882 12.9742 24.9126 14.4987 24.989C16.0232 25.0654 17.5449 24.7918 18.9474 24.1892C20.3498 23.5866 21.5957 22.671 22.5895 21.5125C23.5834 20.354 24.2989 18.9833 24.6812 17.5056C25.0635 16.0278 25.1025 14.4821 24.7952 12.987C24.4878 11.4918 23.8423 10.0869 22.908 8.87978C21.9738 7.67266 20.7756 6.69542 19.4053 6.02292C18.0351 5.35042 16.529 5.00051 15.0026 5ZM15.0026 24.2014C13.385 24.2019 11.7958 23.7759 10.3953 22.9663C10.3344 22.9313 10.2655 22.9127 10.1952 22.9123C10.152 22.9123 10.1091 22.9194 10.0682 22.9333L6.32996 24.1794C6.25947 24.2029 6.18384 24.2064 6.11152 24.1893C6.03921 24.1722 5.97308 24.1354 5.92054 24.0828C5.868 24.0303 5.83113 23.9641 5.81407 23.8918C5.797 23.8195 5.80041 23.7439 5.82392 23.6734L7.07001 19.9351C7.08799 19.8814 7.09434 19.8244 7.08865 19.7681C7.08296 19.7117 7.06536 19.6572 7.03701 19.6081C6.02264 17.8547 5.61526 15.8156 5.87807 13.807C6.14089 11.7985 7.0592 9.93282 8.49055 8.49945C9.92191 7.06609 11.7863 6.14515 13.7945 5.87951C15.8026 5.61388 17.8423 6.01839 19.5971 7.0303C21.3519 8.0422 22.7238 9.60494 23.4998 11.4761C24.2758 13.3472 24.4126 15.4221 23.889 17.3789C23.3654 19.3358 22.2107 21.0651 20.6039 22.2987C18.9972 23.5322 17.0283 24.2011 15.0026 24.2014Z" fill="white"/>
</svg>
