<svg width="35" height="46" viewBox="0 0 35 46" fill="none" xmlns="http://www.w3.org/2000/svg">
<path d="M17.1618 38.1998L32.0505 36.6422C32.9015 36.5532 33.6656 37.1657 33.764 38.0157V38.0157C33.8656 38.8945 33.2232 39.6818 32.3409 39.7469C25.5456 40.2478 12.4287 41.0358 2.73946 41.0172C2.20334 41.0161 1.52132 40.0869 1.36137 39.5752V39.5752C1.08245 38.6829 2.03637 38.2705 2.97115 38.2843L13.161 38.4348" stroke="#A8A8A8"/>
<path d="M20.4681 37C23.5076 31.2137 29.0332 15.6869 25.9574 1.07716" stroke="#A8A8A8"/>
<path d="M25.9715 4.08092L19.852 2.21947L4.71219 21.477C5.94343 25.9749 11.287 35.5132 20.7689 37.2368" stroke="#A8A8A8"/>
<path d="M2 20L28.8936 27.3982" stroke="#A8A8A8"/>
<path d="M12 12L25.8803 20.206" stroke="#A8A8A8"/>
<path d="M11 31L23.9955 31.3975" stroke="#A8A8A8"/>
<path d="M5.32288 41.146C5.10557 41.7887 4.12502 43.4537 1.94131 44.9718C5.88464 45.3207 7.88851 43.3156 9.99913 41.1182" stroke="#A8A8A8"/>
</svg>
